<mxfile host="app.diagrams.net" modified="2023-07-29T02:17:20.234Z" agent="Mozilla/5.0 (Windows NT 10.0; Win64; x64) AppleWebKit/537.36 (KHTML, like Gecko) Chrome/115.0.0.0 Safari/537.36 Edg/115.0.1901.183" version="21.6.5" etag="9gvOpBtch006m8MflT8b" type="github">
  <diagram name="Trang-1" id="HmHJznW3e-0r1fUKdLs1">
    <mxGraphModel>
      <root>
        <mxCell id="0" />
        <mxCell id="1" parent="0" />
      </root>
    </mxGraphModel>
  </diagram>
</mxfile>
